<?xml version="1.0" encoding="UTF-8" standalone="no"?>
<!-- Created with Inkscape (http://www.inkscape.org/) -->

<svg
   xmlns:dc="http://purl.org/dc/elements/1.1/"
   xmlns:cc="http://creativecommons.org/ns#"
   xmlns:rdf="http://www.w3.org/1999/02/22-rdf-syntax-ns#"
   xmlns:svg="http://www.w3.org/2000/svg"
   xmlns="http://www.w3.org/2000/svg"
   xmlns:sodipodi="http://sodipodi.sourceforge.net/DTD/sodipodi-0.dtd"
   xmlns:inkscape="http://www.inkscape.org/namespaces/inkscape"
   width="75"
   height="15"
   id="svg2"
   version="1.1"
   inkscape:version="0.48.4 r9939"
   sodipodi:docname="logo.svg">
  <defs
     id="defs4" />
  <sodipodi:namedview
     id="base"
     pagecolor="#ffffff"
     bordercolor="#666666"
     borderopacity="1.0"
     inkscape:pageopacity="0.0"
     inkscape:pageshadow="2"
     inkscape:zoom="7.9195959"
     inkscape:cx="65.335335"
     inkscape:cy="-11.122451"
     inkscape:document-units="px"
     inkscape:current-layer="layer1"
     showgrid="false"
     inkscape:window-width="1223"
     inkscape:window-height="776"
     inkscape:window-x="57"
     inkscape:window-y="24"
     inkscape:window-maximized="1">
    <inkscape:grid
       type="xygrid"
       id="grid3062"
       empspacing="5"
       visible="true"
       enabled="true"
       snapvisiblegridlinesonly="true" />
  </sodipodi:namedview>
  <metadata
     id="metadata7">
    <rdf:RDF>
      <cc:Work
         rdf:about="">
        <dc:format>image/svg+xml</dc:format>
        <dc:type
           rdf:resource="http://purl.org/dc/dcmitype/StillImage" />
        <dc:title />
      </cc:Work>
    </rdf:RDF>
  </metadata>
  <g
     inkscape:label="Layer 1"
     inkscape:groupmode="layer"
     id="layer1"
     transform="translate(0,-1037.3622)">
    <path
       sodipodi:type="arc"
       style="fill:none;stroke:#000000;stroke-width:0.79837888;stroke-linecap:butt;stroke-linejoin:miter;stroke-miterlimit:4;stroke-opacity:1;stroke-dasharray:none;stroke-dashoffset:0"
       id="path3064"
       sodipodi:cx="5.5"
       sodipodi:cy="5.5"
       sodipodi:rx="5.5"
       sodipodi:ry="5.5"
       d="M 11,5.5 C 11,8.5375661 8.5375661,11 5.5,11 2.4624339,11 0,8.5375661 0,5.5 0,2.4624339 2.4624339,0 5.5,0 8.5375661,0 11,2.4624339 11,5.5 z"
       transform="matrix(1.2525381,0,0,1.2525381,0.50507631,1038.0567)" />
    <g
       transform="matrix(0.93643812,-0.10495128,0.11674907,1.0547916,0,0)"
       style="font-size:12.33587074px;font-style:italic;font-variant:normal;font-weight:bold;font-stretch:normal;text-align:start;line-height:125%;letter-spacing:0px;word-spacing:0px;writing-mode:lr-tb;text-anchor:start;fill:#000000;fill-opacity:1;stroke:none;font-family:Droid Serif;-inkscape-font-specification:Droid Serif Bold Italic"
       id="text3834">
      <path
         d="m -109.23598,977.22788 c -1e-5,0.42565 -0.0904,0.8754 -0.27106,1.34923 -0.18071,0.47384 -0.42164,0.95772 -0.7228,1.45163 -0.30118,0.48991 -0.64652,0.97981 -1.03602,1.46971 -0.38952,0.48588 -0.95737,1.34118 -1.37097,1.79092 l -1.32099,-0.1334 c -1e-5,-0.25298 -0.0226,-0.6476 -0.0306,-0.94074 -0.004,-0.29715 -0.01,-0.60234 -0.0181,-0.91555 -0.004,-0.31322 -0.01,-0.62643 -0.0181,-0.93965 -0.004,-0.31321 -0.01,-0.61237 -0.0181,-0.89748 -0.008,-0.28511 -0.0161,-0.54813 -0.0241,-0.78907 -0.008,-0.24093 -0.0141,-0.44773 -0.0181,-0.6204 -0.32125,0.76296 -0.68868,1.55604 -1.10228,2.37923 -0.41361,0.81918 -0.89347,1.63434 -1.43958,2.44549 l -1.66434,-0.16591 -0.0764,-4.85758 c -0.004,-0.18873 -0.0281,-0.34132 -0.0723,-0.45778 -0.0442,-0.11645 -0.10441,-0.2068 -0.1807,-0.27105 -0.0723,-0.0683 -0.16063,-0.11243 -0.26503,-0.13252 -0.10039,-0.0241 -0.21082,-0.0361 -0.33129,-0.0361 l -0.0723,0 0.19878,-0.65654 2.37923,0 c 0.0241,0.40959 0.0462,0.81918 0.0663,1.22876 0.0201,0.40558 0.0361,0.78706 0.0482,1.14444 0.012,0.35338 0.0221,0.67262 0.0301,0.95772 0.008,0.2811 0.012,0.50396 0.0121,0.6686 -1e-5,0.31321 -0.002,0.5662 -0.006,0.75894 -0.004,0.18874 -0.006,0.29314 -0.006,0.31322 l 0.0904,0 c 0.20479,-0.32526 0.40959,-0.68064 0.61438,-1.06614 0.20479,-0.38549 0.40758,-0.79107 0.60836,-1.21672 0.20078,-0.42565 0.39754,-0.86335 0.5903,-1.3131 0.19274,-0.45375 0.37745,-0.90751 0.55415,-1.36128 l 1.50584,-0.0482 c 0.0241,0.2048 0.0462,0.45578 0.0663,0.75292 0.0241,0.29716 0.0462,0.61439 0.0662,0.9517 0.0201,0.33731 0.0381,0.68265 0.0542,1.03602 0.0201,0.35337 0.0361,0.68867 0.0482,1.0059 0.0161,0.31322 0.0281,0.59833 0.0361,0.85532 0.008,0.25298 0.012,0.44975 0.012,0.59029 l 0.0843,0 c 0.36139,-0.44573 0.66055,-0.84728 0.89748,-1.20467 0.23691,-0.3614 0.42363,-0.69068 0.56017,-0.98784 0.14054,-0.29715 0.23892,-0.56619 0.29515,-0.80713 0.0562,-0.24093 0.0843,-0.46379 0.0843,-0.66859 -1e-5,-0.12047 -0.0181,-0.22889 -0.0542,-0.32527 -0.0362,-0.0964 -0.0823,-0.17868 -0.13853,-0.24695 -0.0562,-0.0723 -0.12249,-0.1285 -0.19878,-0.16866 -0.0723,-0.0442 -0.14657,-0.0763 -0.22286,-0.0964 0.012,-0.1566 0.0442,-0.28912 0.0964,-0.39755 0.0562,-0.11243 0.12448,-0.20278 0.2048,-0.27105 0.0843,-0.0723 0.17868,-0.12447 0.2831,-0.15661 0.10439,-0.0321 0.21482,-0.0482 0.33128,-0.0482 0.27305,0 0.48387,0.0904 0.63246,0.27105 0.15258,0.18071 0.22888,0.43971 0.22889,0.77702"
         id="path3839"
         inkscape:connector-curvature="0"
         sodipodi:nodetypes="ccccccccccsccccccccsccccccccccsscccccccccccccccccccccscc" />
    </g>
    <text
       xml:space="preserve"
       style="font-size:8px;font-style:normal;font-variant:normal;font-weight:normal;font-stretch:normal;line-height:125%;letter-spacing:0px;word-spacing:0px;fill:#000000;fill-opacity:1;stroke:none;font-family:Montserrat;-inkscape-font-specification:Montserrat"
       x="17.589287"
       y="7.5"
       id="text3841"
       sodipodi:linespacing="125%"
       transform="translate(0,1037.3622)"><tspan
         sodipodi:role="line"
         id="tspan3843"
         x="17.589287"
         y="7.5" /></text>
    <text
       xml:space="preserve"
       style="font-size:40px;font-style:normal;font-variant:normal;font-weight:normal;font-stretch:normal;line-height:125%;letter-spacing:0px;word-spacing:0px;fill:#000000;fill-opacity:1;stroke:none;font-family:Montserrat;-inkscape-font-specification:Montserrat"
       x="17.053572"
       y="11.696429"
       id="text3845"
       sodipodi:linespacing="125%"
       transform="translate(0,1037.3622)"><tspan
         sodipodi:role="line"
         id="tspan3847"
         x="17.053572"
         y="11.696429" /></text>
    <g
       style="font-size:12.14269066px;font-style:normal;font-variant:normal;font-weight:normal;font-stretch:normal;text-align:start;line-height:125%;letter-spacing:0px;word-spacing:0px;writing-mode:lr-tb;text-anchor:start;fill:#000000;fill-opacity:1;stroke:none;font-family:Montserrat;-inkscape-font-specification:Montserrat"
       id="text3849">
      <path
         d="m 25.183092,1049.2516 2.355682,-6.4599 -1.420695,0 -1.651406,5.0756 -1.639263,-5.0756 -1.44498,0 -1.627121,5.0756 -1.675691,-5.0756 -1.432837,0 2.379967,6.4599 1.432837,0 1.639264,-4.7842 1.639263,4.7842 1.44498,0"
         style="line-height:125%;font-family:Montserrat;-inkscape-font-specification:Montserrat"
         id="path2993" />
      <path
         d="m 30.927154,1042.7431 c -1.918543,0.012 -3.266384,1.3357 -3.266384,3.2907 0,1.9428 1.311413,3.2664 3.302812,3.2664 1.117126,0 2.039973,-0.4008 2.671392,-1.0929 l -0.740704,-0.7893 c -0.473565,0.4857 -1.117128,0.7529 -1.821404,0.7529 -1.019985,0 -1.784976,-0.6193 -2.003544,-1.615 l 4.881362,0 c 0.169997,-2.3314 -0.752849,-3.8128 -3.02353,-3.8128 m -1.882117,2.7928 c 0.157855,-1.0321 0.874275,-1.6757 1.89426,-1.6757 1.056413,0 1.748547,0.6315 1.797118,1.6757 l -3.691378,0"
         style="line-height:125%;font-family:Montserrat;-inkscape-font-specification:Montserrat"
         id="path2995" />
      <path
         d="m 39.122142,1042.7431 c -1.007843,0 -1.784976,0.4129 -2.258541,1.1657 l 0,-3.6671 -1.396409,0 0,9.0099 1.396409,0 0,-1.1171 c 0.473565,0.7528 1.250698,1.1657 2.282826,1.1657 1.845687,0 3.059958,-1.3236 3.059958,-3.2543 0,-1.9671 -1.250699,-3.3028 -3.084243,-3.3028 m -0.291425,5.3671 c -1.153554,0 -1.967116,-0.8622 -1.967116,-2.1129 0,-1.2142 0.813562,-2.0885 1.967116,-2.0885 1.153555,0 1.967116,0.8864 1.967116,2.0885 0,1.2386 -0.813561,2.1129 -1.967116,2.1129"
         style="line-height:125%;font-family:Montserrat;-inkscape-font-specification:Montserrat"
         id="path2997" />
      <path
         d="m 47.533231,1049.2516 1.372125,0 -0.01214,-4.2378 c -0.01214,-1.4207 -0.947132,-2.2707 -2.610679,-2.2707 -1.22641,0 -1.882118,0.2793 -2.780676,0.8136 l 0.570707,0.9714 c 0.643562,-0.4372 1.287125,-0.6557 1.906402,-0.6557 1.019985,0 1.542122,0.4857 1.542122,1.2992 l 0,0.1943 -1.954973,0 c -1.554263,0.012 -2.440681,0.765 -2.440681,1.9429 0,1.1414 0.874275,2.0035 2.270683,2.0035 0.934986,0 1.675692,-0.2793 2.137113,-0.85 l 0,0.7893 m -1.845688,-1.0443 c -0.777132,0 -1.250698,-0.3764 -1.250698,-0.9593 0,-0.6192 0.424995,-0.8621 1.335696,-0.8621 l 1.748548,0 0,0.595 c -0.07286,0.7043 -0.837847,1.2264 -1.833546,1.2264"
         style="line-height:125%;font-family:Montserrat;-inkscape-font-specification:Montserrat"
         id="path2999" />
      <path
         d="m 51.478846,1041.9417 1.384267,0 1.31141,-1.8214 -1.238554,0 -0.76499,1.1293 -0.764989,-1.1293 -1.238555,0 1.311411,1.8214 m 0.692133,0.85 -1.396409,0 0,6.4599 1.396409,0 0,-3.3757 c 0.109284,-1.105 0.934989,-1.87 2.234255,-1.7971 l 0,-1.3357 c -1.019985,0 -1.797118,0.4614 -2.234255,1.3357 l 0,-1.2871"
         style="line-height:125%;font-family:Montserrat;-inkscape-font-specification:Montserrat"
         id="path3001" />
      <path
         d="m 57.49593,1042.731 c -1.238553,0 -2.379967,0.5585 -2.379967,1.8699 -0.01214,2.3314 3.38781,1.5907 3.38781,2.9143 0,0.4857 -0.461423,0.6921 -1.056414,0.6921 -0.704275,0 -1.602835,-0.3036 -2.161399,-0.8014 l -0.49785,0.9957 c 0.643562,0.5828 1.651407,0.8986 2.598536,0.8986 1.299266,0 2.477109,-0.595 2.477109,-1.9186 0.01214,-2.3435 -3.424239,-1.7 -3.424239,-2.8899 0,-0.4615 0.400709,-0.6436 0.94713,-0.6436 0.570706,0 1.287126,0.2186 1.857831,0.5707 l 0.509993,-1.0321 c -0.582848,-0.4129 -1.444981,-0.6557 -2.25854,-0.6557"
         style="line-height:125%;font-family:Montserrat;-inkscape-font-specification:Montserrat"
         id="path3003" />
      <path
         d="m 64.583657,1047.7702 c -0.376423,0.1821 -0.679991,0.2793 -0.971415,0.2793 -0.437137,0 -0.692134,-0.2065 -0.692134,-0.8743 l 0,-3.0964 1.906403,0 0,-1.0443 -1.906403,0 0,-1.7728 -1.384266,0 0,1.7728 -0.910702,0 0,1.0443 0.910702,0 0,3.3514 c 0,1.3235 0.837846,1.8821 1.80926,1.8821 0.546421,0 1.0807,-0.17 1.590693,-0.4736 l -0.352138,-1.0685"
         style="line-height:125%;font-family:Montserrat;-inkscape-font-specification:Montserrat"
         id="path3005" />
      <path
         d="m 69.140202,1049.2516 2.477109,-6.4599 -1.39641,0 -1.772833,5.0878 -1.797118,-5.0878 -1.457123,0 2.501394,6.4599 1.444981,0"
         style="line-height:125%;font-family:Montserrat;-inkscape-font-specification:Montserrat"
         id="path3007" />
      <path
         d="m 75.192003,1040.6788 -1.432838,-0.6071 -1.287125,1.7971 1.238555,0 1.481408,-1.19 m -1.214269,8.5728 0,-6.4599 -1.384267,0 0,6.4599 1.384267,0"
         style="line-height:125%;font-family:Montserrat;-inkscape-font-specification:Montserrat"
         id="path3009" />
    </g>
  </g>
</svg>
